<mxfile host="app.diagrams.net" modified="2024-02-09T06:58:56.742Z" agent="Mozilla/5.0 (Windows NT 10.0; Win64; x64) AppleWebKit/537.36 (KHTML, like Gecko) Chrome/121.0.0.0 Safari/537.36" etag="BehSKPOmimb7W4TB7MrF" version="23.1.2" type="device">
  <diagram name="Page-1" id="K2wDAmNHvd1r8S66ezIg">
    <mxGraphModel dx="1034" dy="608" grid="1" gridSize="10" guides="1" tooltips="1" connect="1" arrows="1" fold="1" page="1" pageScale="1" pageWidth="827" pageHeight="1169" math="0" shadow="0">
      <root>
        <mxCell id="0" />
        <mxCell id="1" parent="0" />
        <mxCell id="8mfmRK8fr1BjEXwfD1cr-6" value="" style="edgeStyle=orthogonalEdgeStyle;rounded=0;orthogonalLoop=1;jettySize=auto;html=1;labelBackgroundColor=none;fontColor=default;" parent="1" source="8mfmRK8fr1BjEXwfD1cr-2" target="8mfmRK8fr1BjEXwfD1cr-5" edge="1">
          <mxGeometry relative="1" as="geometry" />
        </mxCell>
        <mxCell id="8mfmRK8fr1BjEXwfD1cr-2" value="&lt;font size=&quot;3&quot;&gt;start&lt;/font&gt;" style="ellipse;whiteSpace=wrap;html=1;fontStyle=1;labelBackgroundColor=none;" parent="1" vertex="1">
          <mxGeometry x="320" y="90" width="120" height="80" as="geometry" />
        </mxCell>
        <mxCell id="8mfmRK8fr1BjEXwfD1cr-8" value="" style="edgeStyle=orthogonalEdgeStyle;rounded=0;orthogonalLoop=1;jettySize=auto;html=1;labelBackgroundColor=none;fontColor=default;" parent="1" source="8mfmRK8fr1BjEXwfD1cr-5" target="8mfmRK8fr1BjEXwfD1cr-7" edge="1">
          <mxGeometry relative="1" as="geometry" />
        </mxCell>
        <mxCell id="8mfmRK8fr1BjEXwfD1cr-5" value="&lt;font size=&quot;3&quot;&gt;input year&lt;/font&gt;" style="rounded=1;whiteSpace=wrap;html=1;fontStyle=1;labelBackgroundColor=none;" parent="1" vertex="1">
          <mxGeometry x="320" y="230" width="120" height="60" as="geometry" />
        </mxCell>
        <mxCell id="8mfmRK8fr1BjEXwfD1cr-10" value="" style="edgeStyle=orthogonalEdgeStyle;rounded=0;orthogonalLoop=1;jettySize=auto;html=1;labelBackgroundColor=none;fontColor=default;" parent="1" source="8mfmRK8fr1BjEXwfD1cr-7" target="8mfmRK8fr1BjEXwfD1cr-9" edge="1">
          <mxGeometry relative="1" as="geometry" />
        </mxCell>
        <mxCell id="8mfmRK8fr1BjEXwfD1cr-12" value="" style="edgeStyle=orthogonalEdgeStyle;rounded=0;orthogonalLoop=1;jettySize=auto;html=1;labelBackgroundColor=none;fontColor=default;" parent="1" source="8mfmRK8fr1BjEXwfD1cr-7" target="8mfmRK8fr1BjEXwfD1cr-11" edge="1">
          <mxGeometry relative="1" as="geometry" />
        </mxCell>
        <mxCell id="8mfmRK8fr1BjEXwfD1cr-7" value="int&lt;br&gt;year%4=0" style="rhombus;whiteSpace=wrap;html=1;rounded=1;fontStyle=1;labelBackgroundColor=none;" parent="1" vertex="1">
          <mxGeometry x="320" y="350" width="120" height="80" as="geometry" />
        </mxCell>
        <mxCell id="8mfmRK8fr1BjEXwfD1cr-14" value="" style="edgeStyle=orthogonalEdgeStyle;rounded=0;orthogonalLoop=1;jettySize=auto;html=1;labelBackgroundColor=none;fontColor=default;" parent="1" source="8mfmRK8fr1BjEXwfD1cr-9" target="8mfmRK8fr1BjEXwfD1cr-13" edge="1">
          <mxGeometry relative="1" as="geometry" />
        </mxCell>
        <mxCell id="8mfmRK8fr1BjEXwfD1cr-9" value="a leap year" style="whiteSpace=wrap;html=1;rounded=1;fontStyle=1;labelBackgroundColor=none;" parent="1" vertex="1">
          <mxGeometry x="320" y="490" width="120" height="60" as="geometry" />
        </mxCell>
        <mxCell id="8mfmRK8fr1BjEXwfD1cr-15" value="" style="edgeStyle=orthogonalEdgeStyle;rounded=0;orthogonalLoop=1;jettySize=auto;html=1;labelBackgroundColor=none;fontColor=default;" parent="1" source="8mfmRK8fr1BjEXwfD1cr-11" target="8mfmRK8fr1BjEXwfD1cr-13" edge="1">
          <mxGeometry relative="1" as="geometry" />
        </mxCell>
        <mxCell id="8mfmRK8fr1BjEXwfD1cr-11" value="not a leap year" style="rounded=1;whiteSpace=wrap;html=1;fontStyle=1;labelBackgroundColor=none;" parent="1" vertex="1">
          <mxGeometry x="535" y="360" width="120" height="60" as="geometry" />
        </mxCell>
        <mxCell id="8mfmRK8fr1BjEXwfD1cr-13" value="end" style="ellipse;whiteSpace=wrap;html=1;rounded=1;fontStyle=1;labelBackgroundColor=none;" parent="1" vertex="1">
          <mxGeometry x="540" y="482.5" width="110" height="75" as="geometry" />
        </mxCell>
        <mxCell id="8mfmRK8fr1BjEXwfD1cr-16" value="&lt;b&gt;Y&lt;/b&gt;" style="text;html=1;align=center;verticalAlign=middle;resizable=0;points=[];autosize=1;strokeColor=none;fillColor=none;" parent="1" vertex="1">
          <mxGeometry x="385" y="418" width="30" height="30" as="geometry" />
        </mxCell>
        <mxCell id="8mfmRK8fr1BjEXwfD1cr-17" value="&lt;b&gt;N&lt;/b&gt;" style="text;html=1;align=center;verticalAlign=middle;resizable=0;points=[];autosize=1;strokeColor=none;fillColor=none;" parent="1" vertex="1">
          <mxGeometry x="435" y="358" width="30" height="30" as="geometry" />
        </mxCell>
      </root>
    </mxGraphModel>
  </diagram>
</mxfile>
